<svg width="149" height="398" viewBox="0 0 149 398" fill="none" xmlns="http://www.w3.org/2000/svg">
<path d="M146.602 368.83C146.939 377.112 147.285 385.265 147.625 393.272L147.771 396.689C142.929 396.643 137.422 396.623 131.454 396.582V368.83H146.602Z" fill="white"/>
<path d="M130.454 396.574C125.657 396.54 120.572 396.489 115.295 396.398V368.831H130.454V396.574Z" fill="white"/>
<path d="M73.8967 394.591C67.5474 394.088 61.2892 393.472 55.2746 392.757V368.834H73.8967V394.591Z" fill="white"/>
<path d="M54.2746 392.637C48.9895 391.996 43.9015 391.279 39.1154 390.497V368.835H54.2746V392.637Z" fill="white"/>
<path d="M38.1154 390.331C25.6709 388.257 15.3907 385.749 9.1281 383.015V368.836H38.1154V390.331Z" fill="white"/>
<path d="M8.1281 382.553C7.56785 382.28 6.95628 381.965 6.55974 381.749C3.02897 379.823 1.45224 375.339 1.07634 368.837H8.1281V382.553Z" fill="white"/>
<path d="M144.177 273.033C144.436 288.748 145.122 327.931 145.307 333.713C145.676 345.289 146.109 356.676 146.561 367.83L74.9142 367.833L73.7717 273.033H144.177Z" fill="#A6A6A6"/>
<path d="M144.219 229.172C144.229 235.187 144.19 257.815 144.194 272.033H94.5187V229.172H144.219Z" fill="#A6A6A6"/>
<path fill-rule="evenodd" clip-rule="evenodd" d="M148.028 4.73438L144.219 228.098L93.5187 228.172V272.033H72.7599L73.9142 367.834L1.03239 367.837C0.616799 356.212 4.8179 339.504 11.9338 322.221C19.1418 304.713 29.3089 286.683 40.5861 272.849C69.8129 236.996 89.1113 191.623 104.974 143.994C112.531 121.302 119.312 98.0859 126.014 75.137C126.346 74.0002 126.678 72.864 127.01 71.7286C133.519 49.4511 140.902 25.8273 148.028 4.73438Z" fill="#A6A6A6"/>
<path d="M146.361 117.212L145.23 228.096L144.219 228.098L148.028 4.73438C148.255 4.06509 148.48 3.39834 148.706 2.73428L146.361 117.212Z" fill="#535353"/>
<path fill-rule="evenodd" clip-rule="evenodd" d="M126.05 71.4483C133.071 47.4181 141.019 22.4981 148.762 0L148.706 2.73428C148.48 3.39834 148.255 4.06509 148.028 4.73438C140.902 25.8273 133.519 49.4511 127.01 71.7286L126.014 75.137C119.312 98.0859 112.531 121.302 104.974 143.994C89.1113 191.623 69.8129 236.996 40.5861 272.849C29.3089 286.683 19.1418 304.713 11.9338 322.221C4.8179 339.504 0.616799 356.212 1.03239 367.837L73.9142 367.834L72.7599 272.033H93.5187V228.172L144.219 228.098L145.23 228.096L145.219 229.172C145.229 235.287 145.187 258.355 145.193 272.522C145.383 281.716 145.995 323.148 146.292 333.197C146.658 344.607 147.157 357.831 147.603 368.83C147.951 377.392 148.309 385.818 148.66 394.087L148.661 394.103L148.746 395.918L148.746 395.921L148.831 397.734L148.513 397.731C143.561 397.684 137.007 397.621 130.951 397.579C125.913 397.544 119.872 397.597 114.295 397.5V368.832L74.8967 368.833L74.8312 395.734C68.287 395.217 60.9031 394.441 54.715 393.698C49.062 393.02 43.6261 392.256 38.5343 391.417C25.618 389.29 14.8762 386.682 8.424 383.799L7.84587 383.529C7.22683 383.231 6.52353 382.869 6.08025 382.627C1.94129 380.369 0.370615 375.162 0.0489951 368.36C-0.511716 356.498 3.77736 339.405 11.009 321.84C18.2464 304.261 28.4597 286.141 39.8107 272.217C68.921 236.507 88.1733 191.273 104.025 143.678C111.949 119.883 119.02 95.509 126.05 71.4483ZM131.454 396.582C137.422 396.623 142.929 396.643 147.771 396.689L147.625 393.272C147.285 385.265 146.939 377.112 146.602 368.83H131.454V396.582ZM115.295 396.398C120.572 396.489 125.657 396.54 130.454 396.574V368.831H115.295V396.398ZM55.2746 392.757C61.2892 393.472 67.5474 394.088 73.8967 394.591V368.834H55.2746V392.757ZM39.1154 390.497C43.9015 391.279 48.9895 391.996 54.2746 392.637V368.835H39.1154V390.497ZM9.1281 383.015C15.3907 385.749 25.6709 388.257 38.1154 390.331V368.836H9.1281V383.015ZM6.55974 381.749C6.95628 381.965 7.56785 382.28 8.1281 382.553V368.837H1.07634C1.45224 375.339 3.02897 379.823 6.55974 381.749ZM145.307 333.713C145.122 327.931 144.436 288.748 144.177 273.033H73.7717L74.9142 367.833L146.561 367.83C146.109 356.676 145.676 345.289 145.307 333.713ZM144.194 272.033C144.19 257.815 144.229 235.187 144.219 229.172H94.5187V272.033H144.194Z" fill="#535353"/>
</svg>
