<svg width="398" height="150" viewBox="0 0 398 150" fill="none" xmlns="http://www.w3.org/2000/svg">
<path d="M368.836 146.617C377.115 147.011 385.266 147.413 393.271 147.808L396.686 147.977C396.673 143.134 396.691 137.628 396.691 131.66L368.94 131.47L368.836 146.617Z" fill="white"/>
<path d="M396.69 130.66C396.688 125.863 396.672 120.777 396.618 115.5L369.051 115.311L368.948 130.47L396.69 130.66Z" fill="white"/>
<path d="M395.093 74.09C394.634 67.7374 394.061 61.4751 393.387 55.4558L369.464 55.2923L369.337 73.9139L395.093 74.09Z" fill="white"/>
<path d="M393.273 54.455C392.668 49.1657 391.986 44.0729 391.237 39.2815L369.576 39.1335L369.472 54.2923L393.273 54.455Z" fill="white"/>
<path d="M391.078 38.2804C389.089 25.822 386.651 15.5249 383.96 9.2438L369.782 9.14691L369.583 38.1335L391.078 38.2804Z" fill="white"/>
<path d="M383.505 8.24067C383.236 7.67857 382.926 7.06487 382.712 6.66685C380.81 3.123 376.337 1.51567 369.838 1.09534L369.789 8.14694L383.505 8.24067Z" fill="white"/>
<path d="M273.058 143.538C288.771 143.904 327.949 144.858 333.729 145.082C345.302 145.531 356.686 146.041 367.837 146.569L368.329 74.9246L273.539 73.1342L273.058 143.538Z" fill="#A6A6A6"/>
<path d="M229.198 143.28C235.213 143.331 257.841 143.447 272.058 143.548L272.398 93.874L229.537 93.5811L229.198 143.28Z" fill="#A6A6A6"/>
<path fill-rule="evenodd" clip-rule="evenodd" d="M4.73926 145.556L228.124 143.273L228.544 92.5743L272.404 92.874L272.546 72.1157L368.337 73.9247L368.838 1.04456C357.216 0.549544 340.48 4.63636 323.148 11.6339C305.592 18.7222 287.492 28.7658 273.582 39.9482C237.53 68.9293 192.026 87.9172 144.29 103.454C121.547 110.856 98.2848 117.478 75.2907 124.023C74.1516 124.348 73.0132 124.672 71.8755 124.996C49.5541 131.352 25.8804 138.574 4.73926 145.556Z" fill="#A6A6A6"/>
<path d="M117.226 144.658L228.115 144.284L228.124 143.273L4.73926 145.556C4.06844 145.777 3.40017 145.999 2.73458 146.22L117.226 144.658Z" fill="#535353"/>
<path fill-rule="evenodd" clip-rule="evenodd" d="M71.6018 124.034C47.5242 130.89 22.5505 138.668 -1.53605e-05 146.257L2.73458 146.22C3.40017 145.999 4.06844 145.777 4.73926 145.556C25.8804 138.574 49.5541 131.352 71.8755 124.996L75.2907 124.023C98.2848 117.478 121.547 110.856 144.29 103.454C192.026 87.9172 237.53 68.9293 273.582 39.9482C287.492 28.7658 305.592 18.7222 323.148 11.6339C340.48 4.63636 357.216 0.549544 368.838 1.04456L368.337 73.9247L272.546 72.1157L272.404 92.874L228.544 92.5743L228.124 143.273L228.115 144.284L229.191 144.28C235.306 144.332 258.373 144.448 272.541 144.55C281.733 144.803 323.159 145.698 333.206 146.064C344.613 146.508 357.833 147.097 368.829 147.618C377.389 148.025 385.812 148.44 394.079 148.848L394.095 148.849L395.909 148.947L395.911 148.947L397.725 149.044L397.724 148.726C397.71 143.774 397.692 137.22 397.692 131.164C397.691 126.125 397.785 120.084 397.726 114.507L369.059 114.311L369.329 74.9139L396.23 75.0323C395.758 68.4847 395.032 61.0957 394.332 54.9027C393.692 49.2452 392.965 43.8042 392.161 38.7068C390.122 25.7762 387.588 15.0169 384.749 8.54508L384.483 7.96512C384.19 7.34405 383.832 6.6383 383.593 6.19337C381.364 2.03909 376.167 0.432866 369.368 0.0647661C357.51 -0.577003 340.387 3.59516 322.774 10.7066C305.146 17.8237 286.957 27.9129 272.955 39.1685C237.047 68.0341 191.682 86.9768 143.98 102.502C120.131 110.264 95.71 117.169 71.6018 124.034ZM396.691 131.66C396.691 137.628 396.673 143.134 396.686 147.977L393.271 147.808C385.266 147.413 377.115 147.011 368.836 146.617L368.94 131.47L396.691 131.66ZM396.618 115.5C396.672 120.777 396.688 125.863 396.69 130.66L368.948 130.47L369.051 115.311L396.618 115.5ZM393.387 55.4558C394.061 61.4751 394.634 67.7374 395.093 74.09L369.337 73.9139L369.464 55.2923L393.387 55.4558ZM391.237 39.2815C391.986 44.0729 392.668 49.1657 393.273 54.455L369.472 54.2923L369.576 39.1335L391.237 39.2815ZM383.96 9.2438C386.651 15.5249 389.089 25.822 391.078 38.2804L369.583 38.1335L369.782 9.14691L383.96 9.2438ZM382.712 6.66685C382.926 7.06487 383.236 7.67857 383.505 8.24067L369.789 8.14694L369.838 1.09534C376.337 1.51567 380.81 3.123 382.712 6.66685ZM333.729 145.082C327.949 144.858 288.771 143.904 273.058 143.538L273.539 73.1342L368.329 74.9246L367.837 146.569C356.686 146.041 345.302 145.531 333.729 145.082ZM272.058 143.548C257.841 143.447 235.213 143.331 229.198 143.28L229.537 93.5811L272.398 93.874L272.058 143.548Z" fill="#535353"/>
</svg>
