<svg width="45" height="549" viewBox="0 0 45 549" fill="none" xmlns="http://www.w3.org/2000/svg">
<path d="M1.2589 443.086C1.32462 451.997 1.35037 481.576 1.42883 497.576L1.45155 499.052C1.69814 515.075 2.07671 539.673 2.23937 547.111H42.2911C42.5882 537.062 43.2003 495.63 43.3907 486.436C43.3959 472.269 43.354 449.202 43.3644 443.086H1.2589Z" fill="#A6A6A6"/>
<path d="M14.2472 1C12.357 10.7563 10.3554 21.5229 8.81945 31.0488C7.91818 36.6386 7.17991 41.7889 6.71691 46.0527C7.59638 43.2839 8.79461 40.4639 10.1593 37.9394C11.518 35.4261 13.0567 33.178 14.6368 31.5508C16.1989 29.9423 17.8853 28.8545 19.5382 28.8545H20.0382V57.5566H19.5382C17.2308 57.5566 14.8049 57.5664 12.3986 59.6025C9.9679 61.6594 7.48625 65.8488 5.34582 74.4424C4.94886 86.2993 4.65917 98.8232 4.42297 111.96H9.65051V125.656H4.19836C3.77705 153.535 3.51238 183.894 2.9591 216.351C2.39759 249.29 1.88366 283.671 1.51379 318.569H9.65051V331.111H1.3839C0.942205 374.538 0.861953 395.169 1.25207 442.086H43.3653C43.4865 395.034 42.6911 379.184 42.2218 331.126H34.0206V318.584H42.0948C41.7167 283.667 40.3531 248.175 39.7911 215.211C39.5166 199.106 39.4236 183.856 39.3339 169.148L39.3302 168.543C39.2403 153.819 39.1513 139.635 38.8839 125.671H34.0206V111.975H38.63C38.5245 105.457 38.6212 98.8214 38.6993 92.3535C38.7793 85.7338 38.8982 80.3397 38.6993 74.3535C36.5592 65.7635 33.9449 60.8313 31.463 59.0654C28.9857 57.303 26.5021 57.5713 24.1329 57.5713H23.6329V28.8691H24.1329C25.7687 28.8693 27.45 29.8528 29.0187 31.3379C30.6016 32.8366 32.1432 34.9146 33.504 37.2598C34.8846 39.6391 36.0936 42.3205 36.9767 44.9902C36.5218 40.794 35.789 35.7264 34.8888 30.2266C33.3731 20.9664 31.3937 10.5151 29.5148 1H14.2472Z" fill="#A6A6A6"/>
<path d="M1.39367 330.111H8.65051V319.569H1.50304C1.46438 323.235 1.42809 326.742 1.39367 330.111Z" fill="#6B6B6B"/>
<path d="M35.0206 330.126H42.212C42.1778 326.604 42.1425 323.09 42.1056 319.584H35.0206V330.126Z" fill="#6B6B6B"/>
<path d="M35.0206 124.671H38.8653C38.7884 120.707 38.7143 116.807 38.6456 112.975H35.0206V124.671Z" fill="#6B6B6B"/>
<path d="M4.21691 124.379C4.2155 124.471 4.21344 124.564 4.21203 124.656H8.65051V112.96H4.40441C4.3378 116.717 4.27601 120.524 4.21691 124.379Z" fill="#6B6B6B"/>
<path d="M24.6329 56.5654C26.7973 56.5365 29.4514 56.4071 32.0431 58.251C34.3442 59.8883 36.5415 63.0303 38.4532 68.9707C38.17 63.3331 37.7443 57.7826 37.4835 52.4785V52.4766C37.2875 48.0472 35.3033 42.3538 32.6388 37.7617C31.3088 35.4697 29.8232 33.4771 28.3312 32.0644C27.0219 30.8249 25.761 30.0824 24.6329 29.9092V56.5654Z" fill="black"/>
<path d="M19.0382 29.8984C17.9237 30.0885 16.6674 30.8953 15.3546 32.2471C13.8596 33.7866 12.3714 35.9506 11.0392 38.415C8.37035 43.3519 6.38288 49.389 6.18664 53.8232V53.8252C5.92643 59.1176 5.69918 64.5716 5.49621 70.1797C7.39224 64.1123 9.52732 60.7215 11.7521 58.8389C14.268 56.7099 16.835 56.5682 19.0382 56.5586V29.8984Z" fill="black"/>
<path fill-rule="evenodd" clip-rule="evenodd" d="M30.5 0C32.4033 9.62614 34.3354 20.6583 35.8751 30.0654C37.4101 39.4439 38.2306 48 38.4825 52.4297C38.816 58.2946 39.4287 67.0049 39.6368 73.2139C39.8388 79.2416 39.7795 85.7275 39.6993 92.3652C39.6191 99.007 39.5179 105.803 39.6368 112.466C39.711 116.619 39.7913 120.853 39.8751 125.161C40.15 139.291 40.2393 153.641 40.3302 168.536L40.3346 169.261C40.424 183.909 40.5165 199.089 40.7892 215.115C41.3835 247.291 42.7424 285.139 43.1007 319.079C43.1412 322.916 43.1796 326.765 43.2169 330.621C43.6853 379.039 44.4868 394.87 44.3653 442.086C44.3551 448.102 44.4101 472.729 44.4064 486.947C44.1473 502.662 43.461 542.396 43.2765 548.177H1.24914C1.11552 542.372 0.628354 501.443 0.385857 485.694C0.339608 469.775 0.309446 450.03 0.257928 443.073L0.251092 442.072C-0.173224 391.032 -0.0413422 371.094 0.507928 319.064C0.866369 285.111 1.41688 248.386 1.96008 216.255C2.51153 183.881 2.77677 153.499 3.19738 125.656L3.20422 125.149C3.26945 120.856 3.33875 116.622 3.4132 112.451C3.65146 99.1052 3.94548 86.3869 4.34875 74.3535C4.58672 67.2528 4.86247 60.3893 5.18762 53.7764C5.19131 48.9527 6.27725 40.5332 7.83215 30.8896C9.39184 21.2164 11.5862 9.86611 13.5 0H30.5ZM1.42883 497.576C1.35037 481.576 1.32462 451.997 1.2589 443.086H43.3644C43.354 449.202 43.3959 472.269 43.3907 486.436C43.2003 495.63 42.5882 537.062 42.2911 547.111H2.23937C2.07671 539.673 1.69814 515.075 1.45155 499.052L1.42883 497.576ZM8.81945 31.0488C10.3554 21.5229 12.357 10.7563 14.2472 1H29.5148C31.3937 10.5151 33.3731 20.9664 34.8888 30.2266C35.789 35.7264 36.5218 40.794 36.9767 44.9902C36.0936 42.3205 34.8846 39.6391 33.504 37.2598C32.1432 34.9146 30.6016 32.8366 29.0187 31.3379C27.45 29.8528 25.7687 28.8693 24.1329 28.8691H23.6329V57.5713H24.1329C26.5021 57.5713 28.9857 57.303 31.463 59.0654C33.9449 60.8313 36.5592 65.7635 38.6993 74.3535C38.8982 80.3397 38.7793 85.7338 38.6993 92.3535C38.6212 98.8214 38.5245 105.457 38.63 111.975H34.0206V125.671H38.8839C39.1513 139.635 39.2403 153.819 39.3302 168.543L39.3339 169.148C39.4236 183.856 39.5166 199.106 39.7911 215.211C40.3531 248.175 41.7167 283.667 42.0948 318.584H34.0206V331.126H42.2218C42.6911 379.184 43.4865 395.034 43.3653 442.086H1.25207C0.861953 395.169 0.942205 374.538 1.3839 331.111H9.65051V318.569H1.51379C1.88366 283.671 2.39759 249.29 2.9591 216.351C3.51238 183.894 3.77705 153.535 4.19836 125.656H9.65051V111.96H4.42297C4.65917 98.8232 4.94886 86.2993 5.34582 74.4424C7.48625 65.8488 9.9679 61.6594 12.3986 59.6025C14.8049 57.5664 17.2308 57.5566 19.5382 57.5566H20.0382V28.8545H19.5382C17.8853 28.8545 16.1989 29.9423 14.6368 31.5508C13.0567 33.178 11.518 35.4261 10.1593 37.9394C8.79461 40.4639 7.59638 43.2839 6.71691 46.0527C7.17991 41.7889 7.91818 36.6386 8.81945 31.0488ZM42.212 330.126H35.0206V319.584H42.1056C42.1425 323.09 42.1778 326.604 42.212 330.126ZM8.65051 330.111H1.39367C1.42809 326.742 1.46438 323.235 1.50304 319.569H8.65051V330.111ZM38.8653 124.671H35.0206V112.975H38.6456C38.7143 116.807 38.7884 120.707 38.8653 124.671ZM4.21203 124.656C4.21344 124.564 4.2155 124.471 4.21691 124.379C4.27601 120.524 4.3378 116.717 4.40441 112.96H8.65051V124.656H4.21203ZM15.3546 32.2471C16.6674 30.8953 17.9237 30.0885 19.0382 29.8984V56.5586C16.835 56.5682 14.268 56.7099 11.7521 58.8389C9.52732 60.7215 7.39224 64.1123 5.49621 70.1797C5.69918 64.5716 5.92643 59.1176 6.18664 53.8252V53.8232C6.38288 49.389 8.37035 43.3519 11.0392 38.415C12.3714 35.9506 13.8596 33.7866 15.3546 32.2471ZM32.0431 58.251C29.4514 56.4071 26.7973 56.5365 24.6329 56.5654V29.9092C25.761 30.0824 27.0219 30.8249 28.3312 32.0644C29.8232 33.4771 31.3088 35.4697 32.6388 37.7617C35.3033 42.3538 37.2875 48.0472 37.4835 52.4766V52.4785C37.7443 57.7826 38.17 63.3331 38.4532 68.9707C36.5415 63.0303 34.3442 59.8883 32.0431 58.251Z" fill="#535353"/>
</svg>
