<svg xmlns="http://www.w3.org/2000/svg" viewBox="0 0 62.83 33.66"><path d="M59.92 8.53a1 1 0 0 0 0-.12l-.13-.13s0-.07-.06-.08a.06.06 0 0 1-.06-.06.16.16 0 0 1 .03-.14c.07 0 .1-.08 0-.13a.7.7 0 0 0-.19-.11c-.1 0-.16-.06-.1-.19s0 0 0-.06l-.13-.23v-.17a.25.25 0 0 1 0-.25.74.74 0 0 0-.06-.36.4.4 0 0 0-.22-.15c-.06 0-.05-.08 0-.11a3 3 0 0 1-.06-.32.32.32 0 0 0-.11-.31.09.09 0 0 0-.11-.07.25.25 0 0 1-.27-.21v-.09c0-.07 0-.11-.1-.09S58.1 5.05 58 5l-.08-.08a.33.33 0 0 0-.24-.2h-.28c-.07 0-.1 0-.15-.07a2 2 0 0 0-.35 0c-.14-.06-.06-.19-.18-.3s-.15 0-.22-.12-.13 0-.19 0a.3.3 0 0 0-.14 0 .17.17 0 0 1-.18 0h-.17a.9.9 0 0 0-.29-.23.5.5 0 0 0-.21 0H55l-.24-.07h-.13a.2.2 0 0 0-.18.07.16.16 0 0 1-.13.06 2 2 0 0 0-.33 0c-.12 0-.23.08-.35.1a.11.11 0 0 0-.11.11l-.38.23-.06.06c-.06.06 0 0 0-.06a1.4 1.4 0 0 1-.2.13.7.7 0 0 1-.32.07c-.14 0-.23.08-.35.1s-.12.08-.18.1a2 2 0 0 0-.34.24l-.09.06c-.08 0-.18 0-.22.11l-.09.25a.16.16 0 0 1-.08.14.14.14 0 0 0-.07.18L51 6v.15a.13.13 0 0 1 0 .18.24.24 0 0 0 0 .14s.15-.08.14 0-.09 0-.13 0 0 .1-.06.11 0 .06 0 .1a.8.8 0 0 0 .11.14L51 7a.2.2 0 0 0 0 .07h.17s-.11 0-.12.08.07.15.09.19a.17.17 0 0 0 0 .22.2.2 0 0 1 0 .1.33.33 0 0 0 0 .33.28.28 0 0 0 0 .25v.09a.05.05 0 0 1 0 .08l-.05.16v.07c0 .06.07.13.15.12a.15.15 0 0 1 .12 0h-.13a.7.7 0 0 1 .05.13.07.07 0 0 1 0 .05c0 .1 0 .19.06.28a.2.2 0 0 0 0 .22.2.2 0 0 1 .05.07s.08.05 0 .12a.17.17 0 0 0 0 .1.9.9 0 0 0 .1.24.4.4 0 0 0 .14.12s.06 0 .11 0l.31.29h.17c.05 0 .19.06.3 0s.23.09.32.16a.55.55 0 0 0 .22.1h.16a.8.8 0 0 0 .18.09c.13 0 .18.12.27.18l.13.12h.11c.03 0 0 .07.08.1a1.4 1.4 0 0 1 .17.17.19.19 0 0 0 .26.12h.06a.07.07 0 0 1 0 .05v.13l.12.06a.5.5 0 0 0 .11.1l.23.12h.38l.33-.05a3 3 0 0 0 .27-.06s0-.06 0-.09.07 0 .1 0a1.6 1.6 0 0 0 .29-.09l.26-.14a.8.8 0 0 1 .16-.08.16.16 0 0 0 0-.16c-.06.07-.1 0-.14 0s0 .07 0 .07a2 2 0 0 1-.2-.06l.28-.19h.1c.04 0 .1.09.13.08s.07 0 .08.05h.2a.3.3 0 0 0 0-.07l-.09-.06h.17v-.1a.2.2 0 0 1 0-.1s0 0 .07 0 .06.07.08.06a.5.5 0 0 0 .16-.09.27.27 0 0 0 .11-.18c.07.05.13 0 .15-.06s0-.07.11 0 .06-.15.1-.21a.24.24 0 0 1 .11-.09s.08 0 .12 0 0-.05 0-.08l-.07-.07.09-.06.08.13a.4.4 0 0 0 .1-.08s0 0 0-.09h.12s.06-.09 0-.13v-.07l.12.11a.24.24 0 0 0 .06-.08 2 2 0 0 1 .18-.34c0-.08.19-.11.11-.24s0 0 .06 0a.29.29 0 0 0 .2-.2 1.6 1.6 0 0 1 .08-.23v-.16a.06.06 0 0 1 0-.07s.07 0 .1-.05 0-.07.1-.07 0-.06 0-.08v-.14c0-.05.32.29.32.27m-8.7.25-.06-.06s0-.05.06-.05 0 0 .05.06Zm.15-2.1c-.09.07 0 0-.08 0s0-.12 0-.17.14 0 .1.11 0 .06 0 .09Zm.09-1.3h.17s0 .12-.12.1a.12.12 0 0 1-.07 0 .16.16 0 0 1 0-.09Zm.2 4.38h-.08c-.01 0-.18-.13-.13-.27h.13v.07a.4.4 0 0 0 0 .11c.07.06.07.1 0 .17Zm.24.37h-.16a.12.12 0 0 1 .17 0v.05Zm0-.26h.12-.09Zm1-4.85a.06.06 0 0 1 0-.07s.08 0 .12 0 0 .1-.11 0Zm.24 5.68a.2.2 0 0 1 0-.08h.07v.08Zm.12-.14h-.24s-.05 0-.07-.05l.09-.08h.09c.03 0 .16 0 .16.09v.05Zm.22-6.05h-.1.13Zm.24 6.62v-.07h.2l-.15.09Zm.45-6.9.18.07c0 .08-.07.08-.12 0a.1.1 0 0 0-.05 0Zm-.09 6.94v-.05c0-.05 0 0 0 0h.08a.3.3 0 0 1 0 .08h-.15Zm.24.28c0 .06-.08.05-.13 0s0-.17.09-.18.07.09 0 .14Zm.05.19v-.13s0 .08.05.13Zm0-.36-.08-.09s-.05-.06 0-.1h.18c0 .11.06.15.1.21s-.1.12-.2 0Zm.18-6.86a1 1 0 0 1 0-.15h.06a.3.3 0 0 1 0 .1Zm.26 7.43h-.11v-.06h-.09c.18 0 .19 0 .17.09Zm.55-7.36a.5.5 0 0 1 .15-.07h-.17c-.06.07-.08 0-.1 0a2 2 0 0 1 .07-.21 1 1 0 0 1 0 .15.09.09 0 0 1 .1-.09s0 .11 0 .19-.06.11-.11.15Zm.83.33h-.07a.4.4 0 0 1 0-.09 1 1 0 0 0 0 .1Zm0-.35h-.07v-.09c.1 0 .11.06 0 .13Zm.19.28s-.07 0 0-.12h.13s0 .07-.07.07Zm.22 0a.3.3 0 0 1-.12-.1s.05-.07.08-.08.13.07.13.14-.06.06-.09 0Zm.42 0-.08.13a.07.07 0 0 1 0-.09l.06-.16h.08v.08Zm.45.21c.09-.1.09-.12 0-.26h.11v.33L57.47 5Zm.29 6.21a.06.06 0 0 1-.06 0h-.13s.06-.08.1-.09.06 0 .09 0a.07.07 0 0 1 0 .06Zm.12-5.68-.06-.14v-.12c0-.04.05-.1.09-.08a.5.5 0 0 0 .27 0 .1.1 0 0 1 .05 0h-.21a.7.7 0 0 1-.09.22Zm.12 5.43c-.17-.07-.17-.16 0-.3a1.4 1.4 0 0 1 .07.22s0 .06-.07.08m.07-5.15h-.18a.3.3 0 0 0 0-.07h.2a1 1 0 0 1 0 .17h-.1Zm.12-.3c-.06 0-.06-.06 0-.13l.1.1Zm.17.4c-.05 0-.1 0-.08-.06s0 0 .07-.06.1 0 .09.06 0 .06-.05.09Zm.33.68h-.06a.2.2 0 0 1-.05-.08h.1a.07.07 0 0 1 0 .06Zm.72 1.56a.26.26 0 0 1-.09.09s-.08 0-.08-.06v-.1h.18a.4.4 0 0 1 0 .1Zm.12.68v-.16l.11.1Zm.2-.13s0-.06-.05-.11h.14s0 .13-.09.11m-5.25-6.42c0 .12.08.24.23.26v.08h.12l-.08.05a.8.8 0 0 0 .2.3s0 .12.09.17a.3.3 0 0 0 .16.12 1.4 1.4 0 0 1 .29.08.6.6 0 0 0 .23 0 .28.28 0 0 0 .22 0 .5.5 0 0 1 .2 0 .13.13 0 0 0 .13-.13.3.3 0 0 0 0-.07.3.3 0 0 1 0-.1 2 2 0 0 0 .1.13v-.09h.06l.14-.19h.07c0-.09.07-.07.13-.08s0-.11.08-.1a1 1 0 0 1 0-.15v-.14a.06.06 0 0 1 0-.06c.08 0 0-.12 0-.15a3 3 0 0 1 .15-.38.28.28 0 0 0 0-.23 1.4 1.4 0 0 0 0-.25c0-.09-.08-.18 0-.28a.24.24 0 0 0 0-.12 2 2 0 0 1-.11-.21.25.25 0 0 0-.15-.2s-.05.09-.06.09l-.22-.1v-.1l.08-.08a.15.15 0 0 0-.2 0c-.1 0-.2-.06-.3-.09a.8.8 0 0 1-.17-.22h-.13c-.08 0-.1.05-.09.12V.3s-.05.07-.08.07-.06 0-.1-.06h-.05c0 .06.06.1.05.14a.4.4 0 0 1-.08.1l-.2-.05c-.11-.08-.11-.08-.18 0L55 .6c0 .1-.07.21-.2.23l-.19.27v.44c0 .1 0 .2-.06.32l.11.07a.16.16 0 0 0-.11.2Zm.3-.68.06.1h-.05a.4.4 0 0 1 0-.09Zm0 .43s.1 0 .1-.1.15.07 0 .22-.28 0-.17-.08Zm8.07 3.87v-.13c-.1 0-.13 0-.13-.13v-.08a.7.7 0 0 0-.11-.13s-.08 0-.1 0a.12.12 0 0 0-.15 0h-.17l-.19-.3a.3.3 0 0 0-.38 0 .16.16 0 0 0-.17.12.23.23 0 0 1-.31.12s0 0-.06 0l.07-.06h.12a.5.5 0 0 0 0-.1s-.1-.08-.13-.07a.11.11 0 0 1-.12 0 .11.11 0 0 0-.13 0 2 2 0 0 1-.14.14s0 .1 0 .11h-.12l.06-.07h-.08c-.02 0 0 0-.05.06l-.06.1a.28.28 0 0 0-.09.2.16.16 0 0 1-.06.08 2 2 0 0 0-.17.12.42.42 0 0 0-.13.33c0 .08 0 .14-.06.2a.13.13 0 0 0 0 .2.12.12 0 0 1 0 .15.1.1 0 0 0 0 .14s.05 0 .05 0 .1.07.16.08a.2.2 0 0 0 .1.25c.11.08.27 0 .34.17a1 1 0 0 0 .3 0 .22.22 0 0 1 .19.06h.19a.23.23 0 0 0 .14 0s0-.06 0-.09v-.06a.29.29 0 0 0 .21-.24.17.17 0 0 1 .13-.11s-.08.13-.12.18 0 .07 0 .08h.15c.1 0 .13 0 .14-.15a.23.23 0 0 0 .32-.05c.07-.07.2-.1.19-.23a.34.34 0 0 0 .16-.21.28.28 0 0 0 .06-.18 1.6 1.6 0 0 1 .06-.3v.07L62.73 6c.03 0 .04-.14.1-.14Zm-2.59.23c.09.06.07.14 0 .21s0 0 0-.21m0 .93h-.08zh.06-.07Zm.58-1.3h-.07zm.32 1.51-.07.08a1 1 0 0 1 0-.15.13.13 0 0 1 .06-.07.08.08 0 0 1 .09 0s-.05.11-.08.14m.14-.16s-.07 0-.06-.05 0 0 .06-.09l.07.09s0 .05-.07.05m.64.1c0-.09-.14-.1-.12-.21.13 0 .16.11.11.23Zm.24-1.42a.2.2 0 0 1 0-.1l.07.09a.1.1 0 0 1-.05 0Zm.19 0s0-.11.06-.11.07 0 .07.08 0 .07-.08.08h-.05Zm.26.65c-.1 0-.16 0-.22-.1a.1.1 0 0 1 .13-.08c.07 0 .09.09.07.19Zm-11.72-4c0 .11.05.22.07.33a.3.3 0 0 1 0 .09A.3.3 0 0 1 51 3a.15.15 0 0 0 0 .09s.1.07.11.12a1.5 1.5 0 0 0 .3.41s0 .06 0 .08.07.1.11.15l.05-.07.16.18.14.15a.37.37 0 0 0 .21 0 3 3 0 0 1 .46-.11c.08 0 .1 0 .09-.12s.13 0 .16-.05-.1-.08 0-.09h.19c0-.11.08-.08.1-.11s-.06-.08-.06-.1a.2.2 0 0 1 0-.1v-.12l.09.06.06-.2a.14.14 0 0 1 0-.17v-.11a.5.5 0 0 1 0-.16c0-.12 0-.19-.12-.22l.05-.07c0-.06 0-.18-.15-.14a.67.67 0 0 1-.42 0 .14.14 0 0 1 0-.08v-.19c0-.07 0 0 0 0 .05 0 .23 0 .13.12s.29.07.25-.09l-.09-.16-.18.05s0-.05-.07-.07h.06l.37-.23a1.5 1.5 0 0 1-.12-.2s-.09 0-.1 0 0-.06 0-.1l-.31-.14h-.05s0-.06-.07-.08a.2.2 0 0 0-.26 0 .36.36 0 0 1-.3.12.13.13 0 0 0-.13.1.16.16 0 0 1-.12.11.48.48 0 0 0-.3.42A.34.34 0 0 0 51 2c0 .1-.06.12-.12.16v.14Zm1.71-.62h.06Zm0-.19v.06h-.12c0-.06.06-.1.1-.05Zm-.31.53a.5.5 0 0 1 0 .12c-.09-.05 0-.1 0-.14Zm-1 1.28-.08.11-.07-.07.11-.07ZM58 4a.16.16 0 0 1 .11.14.13.13 0 0 0 .12.1c.08 0 .1.06 0 .12a.09.09 0 0 0 0 .13.07.07 0 0 0 .06 0l.28.08h.41c0 .12 0 .14.15.15h.1a.11.11 0 0 0 .13 0s0-.08.09-.1.05 0 0-.08 0-.07 0-.07.05 0 .06-.07a.3.3 0 0 1 0-.09.2.2 0 0 1 .1 0 .11.11 0 0 0 .17 0l.09-.1v-.08l.13-.07h-.06a.2.2 0 0 1 0-.08v-.17s.07 0 .08.06a.09.09 0 0 0 .1 0h.07c.1 0 .16 0 .17-.12a2 2 0 0 1 0-.24v-.1c0-.03 0-.1.07-.13a.11.11 0 0 0 .08-.13.2.2 0 0 1 0-.08 1 1 0 0 0 0-.41c.07-.14 0-.27 0-.4a1.2 1.2 0 0 0-.11-.32c0-.1-.09-.2-.13-.29-.11 0-.18-.17-.31-.2a.19.19 0 0 0-.23 0h-.06c-.11 0-.21-.08-.29 0l-.17.11H59a.16.16 0 0 0-.14.12l.1.08-.15.12-.26.17a.3.3 0 0 0-.1.19.12.12 0 0 1 0 .11.2.2 0 0 0-.11.2.07.07 0 0 0-.09 0v.18h.09s-.06.08-.1.1a.11.11 0 0 0-.06.12.1.1 0 0 1 0 .13q-.09.06 0 .12s.06.06 0 .11l-.1.15a.14.14 0 0 0 0 .06.28.28 0 0 1 0 .28S58 4 58 4m2.41-.63c.06.09 0 .12 0 .14a1 1 0 0 0 0-.14m-.33-1.73s-.05.06-.07.06-.06 0 0-.09 0 0 0-.06.07.08.14.08ZM59.74 4h.08c.01 0 0 .1 0 .11s-.05-.07-.1-.07V4Zm-.28.29v.12h-.11l.1-.08Zm-.18-.2a.14.14 0 0 1 0 .06v-.09h.1Zm-.09.21.13-.09c0 .06.06.11 0 .13h-.08v-.1Zm-.56-2.17s.09.05 0 .1a.4.4 0 0 1-.11.12c0-.07-.06-.14 0-.19Zm-.08 2s0-.09.06-.09a.07.07 0 0 1 .06.07 3 3 0 0 0 0 .31h.06-.06c-.06 0-.08 0-.1-.05a1 1 0 0 1 0-.24Zm-.13-1.61v.1h-.06v-.11Zm-.3.84a.3.3 0 0 1 0 .09.06.06 0 0 1-.05 0 1 1 0 0 1 0-.1Zm-41.81 20.3a3.5 3.5 0 0 1-.69 1.09c-.21.23-.48-.8-.55-1.06a5.5 5.5 0 0 1 .41-3.42c.27-.67-.48-1-1-.8l-.2-.21c-1.12-1-2.6.3-3.13 1.3a6.2 6.2 0 0 0-.74 2.34c-.53.68-2.56 2.75-3.51 1.95a3.74 3.74 0 0 1-.8-2.59 30.6 30.6 0 0 0 3.06-3.94A11.5 11.5 0 0 0 11 11.4c0-1.4-.49-3.22-2.09-3.4s-2.62 2.65-3 3.8a28.4 28.4 0 0 0-1.26 9.83 38 38 0 0 1-4.41 4c-.74.58.3 1.61 1 1a42 42 0 0 0 3.54-3.1c.19 1.15.6 2.34 1.65 2.72 1.49.55 3.19-.5 4.31-1.63a1 1 0 0 0 .05.08.6.6 0 0 0 .12.16 1.77 1.77 0 0 0 2.48.3 1.7 1.7 0 0 0 .42-.47 5 5 0 0 0 .43.83 1.45 1.45 0 0 0 2 .54 3.84 3.84 0 0 0 1.44-2c.41-.88-1.01-1.26-1.37-.4M6.1 20a28.4 28.4 0 0 1 1.37-8.23c.26-.81 1.26-3.41 1.89-1.5 1.15 3.49-1.08 7.09-3.26 9.73m7.26 2.36a4.8 4.8 0 0 1-.46 1.27c-.25.47-.47.64-.85.29-.61-1 .23-2.94 1.14-3.46.24-.14.24.13.28.42a4.3 4.3 0 0 1-.11 1.45ZM49.08 12a5 5 0 0 0-.55 0 7 7 0 0 1-6.17 3.75 7.9 7.9 0 0 0-1.14 4.07v11.55a2.29 2.29 0 1 0 4.57 0v-6.06h6.54v6.06a2.29 2.29 0 1 0 4.57 0V19.89A7.85 7.85 0 0 0 49.08 12m3.27 9.85h-6.54V19.6c0-1.37 1.46-2.48 3.27-2.48s3.27 1.11 3.27 2.48Zm-3.87-13.6a6.39 6.39 0 0 0-6.11-6.63H34A2.36 2.36 0 0 0 31.67 4v13.77a6.33 6.33 0 0 1 4.25 4.05 1 1 0 0 1 0 .11v-7.06h6.4a6.39 6.39 0 0 0 6.16-6.62M36 10.53V5.72h5.88A2.42 2.42 0 0 1 44 8.35a2.4 2.4 0 0 1-2.19 2.18Zm-5.81 8-5.94-.27A2.1 2.1 0 0 1 22.33 16a2 2 0 0 1 1.84-2.09h6.55V9.16h-6.48c-2.92 0-6.23 2.77-6.23 7 0 3.43 2.9 6.22 4.56 6.35s6.94.4 7.05.4a1.93 1.93 0 0 1 1.9 2 .13.13 0 0 1 0 .06 2.07 2.07 0 0 1-2 2h-9.15a2.37 2.37 0 1 0 0 4.73h9.25c2.63 0 5.95-3.08 5.95-6.89 0-3.62-2.57-6.18-5.41-6.32Z" style="fill:#eb651c"/></svg>