<svg width="34" height="186" viewBox="0 0 34 186" fill="none" xmlns="http://www.w3.org/2000/svg">
<path d="M7.36519 1.00014L2.48042 5.34291L2.48042 17.6613L4.90327 21.2765L2.49507 24.8917L2.4814 37.2833L4.56929 40.3996L32.3164 40.3996L32.3173 1.00014L7.36519 1.00014Z" fill="#3E3E3E"/>
<path d="M4.48921 145.281L0.999952 149.575L0.999951 161.943L3.40913 165.558L0.999951 169.172L0.99995 181.566L3.07612 184.68L5.8603 184.68L32.3095 184.68L32.3105 145.281L4.48921 145.281Z" fill="#3E3E3E"/>
<path fill-rule="evenodd" clip-rule="evenodd" d="M-4.99114e-05 181.868L-4.93432e-05 168.869L2.20698 165.558L-4.90537e-05 162.246L-4.84843e-05 149.221L4.0417 144.281L33.3112 144.281L33.3085 185.662L2.53999 185.68L-4.99114e-05 181.868ZM0.999952 149.575L4.48921 145.281L32.3105 145.281L32.3095 184.68L5.8603 184.68L3.07612 184.68L0.99995 181.566L0.999951 169.172L3.40913 165.558L0.999951 161.943L0.999952 149.575Z" fill="#535353"/>
<path fill-rule="evenodd" clip-rule="evenodd" d="M4.05211 41.3996L1.48042 37.589L1.49605 24.589L3.70113 21.2775L1.48042 17.9669L1.48042 4.89369L7.06178 -1.14771e-06L33.3183 0.00014125L33.3157 41.3996L4.05211 41.3996ZM2.48042 5.34291L7.36519 1.00014L32.3173 1.00014L32.3164 40.3996L4.56929 40.3996L2.4814 37.2833L2.49507 24.8917L4.90327 21.2765L2.48042 17.6613L2.48042 5.34291Z" fill="#535353"/>
</svg>
