<svg width="18" height="36" viewBox="0 0 18 36" fill="none" xmlns="http://www.w3.org/2000/svg">
<path d="M8.70238 1.00978C8.63949 1.0345 8.52051 1.11524 8.3557 1.36135C8.15025 1.66835 7.94944 2.12467 7.76195 2.68556C7.38901 3.80137 7.10614 5.21144 6.91527 6.35842C6.44078 9.20955 4.02038 20.8282 1.3391 34.626H16.2141C13.4919 20.884 11.0168 9.25183 10.5364 6.36525C10.3454 5.21767 10.0657 3.80891 9.69555 2.69435C9.50935 2.13386 9.30918 1.67745 9.10473 1.37111C8.88525 1.04254 8.74747 1.01204 8.71605 1.01174C8.71146 1.01169 8.70694 1.00996 8.70238 1.00978Z" fill="#6B6B6B"/>
<path fill-rule="evenodd" clip-rule="evenodd" d="M8.73754 1.78353e-05C8.79659 -0.000516383 8.85274 0.0109892 8.90551 0.0293147C9.36551 0.109006 9.70341 0.46691 9.93676 0.816424C10.2145 1.23261 10.4471 1.78686 10.6438 2.37892C11.0394 3.57 11.3297 5.04147 11.5227 6.20119C12.0071 9.1115 14.9662 21.5863 17.7422 35.626H0C2.73395 21.5322 5.45022 9.07087 5.92895 6.19435C6.12206 5.03387 6.41514 3.56067 6.81371 2.36818C7.01181 1.77561 7.24592 1.2211 7.52465 0.804705C7.78824 0.41109 8.18469 0.00535193 8.73754 1.78353e-05ZM8.3557 1.36135C8.52051 1.11524 8.63949 1.0345 8.70238 1.00978C8.70694 1.00996 8.71146 1.01169 8.71605 1.01174C8.74747 1.01204 8.88525 1.04254 9.10473 1.37111C9.30918 1.67745 9.50935 2.13386 9.69555 2.69435C10.0657 3.80891 10.3454 5.21767 10.5364 6.36525C11.0168 9.25183 13.4919 20.884 16.2141 34.626H1.3391C4.02038 20.8282 6.44078 9.20955 6.91527 6.35842C7.10614 5.21144 7.38901 3.80137 7.76195 2.68556C7.94944 2.12467 8.15025 1.66835 8.3557 1.36135Z" fill="#535353"/>
</svg>
