<svg width="334" height="806" viewBox="0 0 334 806" fill="none" xmlns="http://www.w3.org/2000/svg">
<path d="M166.704 0.0126953C167.251 0.0235208 167.643 0.425597 167.904 0.816406C168.181 1.23263 168.414 1.78671 168.611 2.37891C169.006 3.57005 169.296 5.04133 169.49 6.20117C169.974 9.11077 172.505 20.989 175.281 35.0293C177.185 44.6555 179.2 55.2841 180.74 64.6914C182.275 74.07 183.343 82.2731 183.347 87.0557L183.48 89.5469C183.813 95.412 184.293 101.631 184.501 107.84C184.703 113.868 184.644 120.353 184.564 126.991C184.484 133.633 184.382 140.429 184.501 147.092C184.575 151.245 184.656 155.479 184.74 159.787C185.014 173.917 185.104 188.267 185.195 203.162C185.285 218.034 185.376 233.451 185.654 249.741C193.396 272.239 200.377 295.958 207.398 319.988C214.427 344.049 221.498 368.423 229.423 392.218C245.274 439.813 264.527 485.047 293.637 520.757C304.988 534.681 315.201 552.801 322.439 570.38C329.67 587.945 333.959 605.038 333.399 616.9C333.077 623.702 331.506 628.909 327.367 631.167C326.776 631.489 325.724 632.026 325.024 632.339C318.571 635.222 307.83 637.83 294.913 639.957C289.822 640.796 284.386 641.56 278.733 642.238C272.545 642.981 266.095 643.618 259.551 644.135V647.142L255.74 649.683H242.74L242.615 649.599L239.429 647.475L236.243 649.599L236.117 649.683H223.092L222.954 649.571L218.477 645.934C212.9 646.031 207.535 646.084 202.496 646.119C196.31 646.162 190.621 646.181 185.634 646.229C184.27 678.28 183.084 697.993 176.014 755.435C175.018 763.525 173.104 775.942 171.291 786.335C170.385 791.531 169.503 796.228 168.774 799.628C168.409 801.326 168.081 802.71 167.805 803.674C167.668 804.153 167.538 804.544 167.419 804.822C167.361 804.958 167.295 805.092 167.219 805.198C167.181 805.251 167.127 805.318 167.055 805.375C166.984 805.431 166.858 805.506 166.688 805.506C166.507 805.506 166.377 805.42 166.31 805.363C166.24 805.304 166.188 805.236 166.153 805.183C166.081 805.075 166.018 804.939 165.961 804.8C165.846 804.514 165.719 804.112 165.584 803.617C165.312 802.623 164.987 801.194 164.625 799.441C163.9 795.933 163.021 791.091 162.115 785.749C160.302 775.064 158.382 762.356 157.386 754.267C150.459 697.983 149.53 678.262 148.168 646.212C143.095 646.158 137.264 646.052 130.916 645.88H114.924L111.586 648.117L111.46 648.202H111.308L98.6106 648.188L98.4602 648.187L98.3342 648.104L95.1487 645.981L91.9641 648.117L91.8381 648.202H78.7649L78.6155 648.034L74.1321 642.99C67.0933 642.44 60.1603 641.808 53.5413 641.086C47.4446 640.421 41.6126 639.679 36.2073 638.854C24.32 637.041 14.4519 634.821 8.37622 632.106C7.68152 631.796 7.03418 631.478 6.43774 631.152C2.31343 628.903 0.372165 623.72 0.0490723 616.886C-0.511575 605.025 3.76439 587.644 10.9836 569.792C18.2085 551.926 28.4101 533.516 39.7629 519.59C68.8734 483.88 87.895 439.222 103.516 392.205C111.326 368.698 118.282 344.613 125.226 320.768C132.16 296.953 139.082 273.379 146.824 250.881C147.376 218.507 147.641 188.125 148.062 160.282H148.061L148.069 159.775C148.134 155.481 148.203 151.248 148.278 147.077C148.516 133.731 148.81 121.013 149.213 108.979C149.451 101.879 149.727 95.0154 150.052 88.4023C150.056 83.5786 151.142 75.1594 152.697 65.5156C154.256 55.8422 156.294 44.8975 158.208 35.0312C160.942 20.9368 163.417 9.07014 163.896 6.19434C164.089 5.03373 164.382 3.56072 164.781 2.36816C164.979 1.77546 165.213 1.22111 165.491 0.804687C165.755 0.411081 166.152 0.00535265 166.704 0V0.0126953ZM148.089 617.368C148.404 626.994 148.755 636.446 149.148 645.697C150.519 678.005 151.421 697.616 158.378 754.145C159.371 762.214 161.289 774.907 163.1 785.582C164.005 790.92 164.883 795.748 165.605 799.239C165.966 800.986 166.286 802.39 166.549 803.354C166.601 803.545 166.652 803.716 166.698 803.867C166.743 803.728 166.793 803.572 166.843 803.398C167.11 802.468 167.433 801.11 167.796 799.418C168.522 796.037 169.401 791.355 170.306 786.163C172.116 775.78 174.028 763.381 175.021 755.312C182.122 697.613 183.285 678.017 184.656 645.712C185.049 636.455 185.453 626.999 185.845 617.37L168.937 617.369C171.768 678.56 171.332 696.196 167.626 754.237L166.629 754.243C162.187 696.2 161.663 678.559 165.057 617.369L148.089 617.368ZM166.059 617.369C162.808 675.959 163.149 694.58 167.08 746.968C170.36 694.581 170.648 675.956 167.936 617.369H166.059ZM219.153 645.193L223.447 648.683H235.815L239.152 646.458L239.429 646.273L239.706 646.458L243.043 648.683H255.437L258.551 646.606V617.373L219.153 617.372L219.153 645.193ZM74.8713 642.317L79.2141 647.202H91.5325L94.8704 644.965L95.1477 644.779L95.426 644.964L98.7639 647.188L111.155 647.201L114.271 645.113V617.366L74.8713 617.365V642.317ZM186.846 617.37C186.461 626.833 186.064 636.128 185.677 645.229C190.519 645.183 196.026 645.163 201.993 645.122L201.993 617.37H186.846ZM131.43 644.893C137.562 645.056 143.201 645.159 148.126 645.212C147.742 636.115 147.398 626.825 147.088 617.368H131.43L131.43 644.893ZM202.993 645.114C207.79 645.08 212.876 645.029 218.153 644.938L218.153 617.371H202.993L202.993 645.114ZM115.271 644.88H130.43L130.43 617.367H115.271V644.88ZM259.551 643.131C265.9 642.628 272.158 642.012 278.173 641.297V617.374H259.551V643.131ZM54.0959 640.139C60.462 640.828 67.115 641.434 73.8713 641.966V617.364H54.0959V640.139ZM279.173 641.177C284.458 640.536 289.546 639.819 294.332 639.037V617.375H279.173V641.177ZM36.7825 637.929C41.887 638.7 47.3698 639.399 53.0959 640.029V617.363H36.7825V637.929ZM295.332 638.871C307.777 636.797 318.057 634.289 324.32 631.555V617.376H295.332V638.871ZM9.08032 631.322C14.949 633.876 24.3557 636.01 35.7825 637.775V617.362H9.08032L9.08032 631.322ZM325.32 631.093C325.88 630.82 326.491 630.505 326.888 630.289C330.419 628.363 331.995 623.879 332.371 617.377H325.32V631.093ZM1.07739 617.362C1.46908 623.835 3.37134 628.341 6.91626 630.274C7.28237 630.474 7.67101 630.671 8.08032 630.866L8.08032 617.362H1.07739ZM185.714 253.016C186.308 285.192 187.607 319.765 187.965 353.705C188.006 357.542 188.044 361.39 188.081 365.247C188.55 413.665 189.351 429.496 189.23 476.712H239.929V520.573H260.688L260.682 521.079L259.533 616.374L278.673 616.375L294.832 616.376L324.82 616.377H332.415C332.831 604.752 328.63 588.044 321.514 570.761C314.306 553.253 304.139 535.223 292.862 521.389C263.635 485.536 244.336 440.163 228.474 392.534C220.542 368.718 213.466 344.325 206.438 320.269C199.723 297.284 193.048 274.608 185.714 253.016ZM189.265 522.858C189.261 523.364 189.255 523.937 189.25 524.561C189.247 527.738 189.242 530.185 189.229 531.469C189.198 534.556 189.161 537.634 189.118 540.704C189.114 540.991 189.112 541.156 189.111 541.206C189.11 541.211 189.109 541.223 189.109 541.235C189.108 541.24 189.107 541.251 189.107 541.258C189.105 541.274 189.088 541.349 189.067 541.407C189.013 541.445 188.958 541.471 188.904 541.49C188.645 557.205 188.325 576.471 188.141 582.253C187.771 593.83 187.339 605.216 186.887 616.37L202.493 616.371L218.653 616.372L258.533 616.373L259.676 521.573H189.271C189.269 521.925 189.268 522.359 189.265 522.858ZM147.126 582.737C147.39 594.147 147.699 605.37 148.056 616.368L165.114 616.369C165.554 608.459 166.058 599.824 166.628 590.288L167.627 590.293C168.102 599.827 168.522 608.46 168.89 616.369L185.886 616.37C186.332 605.371 186.758 594.147 187.124 582.737H147.126ZM167.082 599.574C166.732 605.528 166.408 611.109 166.115 616.369H167.889C167.644 611.109 167.374 605.528 167.082 599.574ZM74.8713 616.365L114.771 616.367L130.93 616.368H147.055C146.693 605.213 146.38 593.825 146.114 582.248C145.98 576.443 145.677 557.045 145.435 541.296C145.412 541.279 145.388 541.261 145.365 541.239C145.364 541.227 145.364 541.211 145.364 541.207C145.363 541.205 145.363 541.203 145.363 541.201C145.362 541.197 145.363 541.191 145.363 541.186C145.362 541.14 145.36 540.979 145.356 540.689C145.352 540.44 145.349 540.169 145.346 539.878C145.342 539.6 145.34 539.285 145.335 538.937C145.31 536.957 145.272 533.929 145.234 530.901C145.196 527.873 145.157 524.843 145.134 522.857C145.128 522.352 145.123 521.914 145.119 521.561L98.5989 520.406H74.8713L74.8713 616.365ZM146.77 254.139C139.438 275.724 132.82 298.265 126.186 321.048C119.244 344.887 112.282 368.992 104.465 392.521C88.8324 439.573 69.7648 484.369 40.5383 520.222C29.2627 534.054 19.107 552.371 11.9104 570.167C4.80589 587.736 0.616458 604.729 1.03247 616.362H8.58032L36.2825 616.363L53.5959 616.364H73.8713L73.8713 519.406H98.1116L98.1116 475.532L98.6243 475.545L145.115 476.698C144.691 425.658 144.823 405.72 145.372 353.69C145.731 319.737 146.227 286.27 146.77 254.139ZM146.123 477.712C146.189 486.622 146.215 516.202 146.293 532.202C146.539 548.147 146.936 574.066 147.104 581.737H187.156C187.453 571.688 188.065 530.255 188.255 521.062C188.26 506.895 188.218 483.827 188.229 477.712L146.123 477.712ZM189.229 477.712C189.219 483.727 189.258 506.243 189.254 520.461C189.258 520.475 189.262 520.487 189.263 520.494C189.269 520.53 189.271 520.563 189.271 520.563C189.271 520.567 189.271 520.57 189.271 520.573H238.929V477.712H189.229ZM99.1116 519.418L145.111 520.56C145.111 520.557 145.111 520.554 145.112 520.551C145.112 520.545 145.113 520.529 145.115 520.519C145.117 520.503 145.164 520.416 145.25 520.32C145.204 504.401 145.174 484.656 145.122 477.699L99.1116 476.558L99.1116 519.418ZM159.112 35.626C157.221 45.3824 155.22 56.1487 153.684 65.6748C152.783 71.2647 152.044 76.4148 151.581 80.6787C152.461 77.9097 153.659 75.09 155.024 72.5654C156.382 70.052 157.921 67.804 159.501 66.1768C161.063 64.5683 162.75 63.4805 164.403 63.4805H164.903L164.903 92.1826H164.403C162.095 92.1826 159.669 92.1924 157.263 94.2285C154.832 96.2853 152.351 100.475 150.21 109.068C149.813 120.925 149.524 133.449 149.287 146.586H154.515V160.282H149.063C148.641 188.161 148.377 218.52 147.823 250.977C147.262 283.917 146.747 318.297 146.377 353.195H154.515V365.737H146.248C145.807 409.164 145.726 429.795 146.116 476.712L188.23 476.712C188.351 429.66 187.555 413.811 187.086 365.752H178.885V353.21H186.959C186.581 318.292 185.217 282.801 184.656 249.837C184.377 233.511 184.285 218.064 184.195 203.169C184.105 188.445 184.016 174.261 183.748 160.297H178.885V146.601H183.494C183.389 140.082 183.486 133.448 183.564 126.979C183.644 120.36 183.702 113.915 183.503 107.929C181.363 99.3384 178.809 95.4572 176.327 93.6914C173.85 91.929 171.366 92.1972 168.997 92.1973H168.497L168.497 63.4951H168.997C170.633 63.4952 172.314 64.4788 173.883 65.9639C175.466 67.4626 177.008 69.5405 178.368 71.8857C179.749 74.2651 180.958 76.9464 181.841 79.6162C181.386 75.4199 180.653 70.3525 179.753 64.8525C178.238 55.5922 176.258 45.1412 174.379 35.626H159.112ZM179.885 364.752H187.076C187.042 361.23 187.007 357.716 186.97 354.21H179.885V364.752ZM146.258 364.737H153.515V354.195H146.366C146.328 357.861 146.292 361.368 146.258 364.737ZM179.885 159.297H183.73C183.653 155.333 183.579 151.433 183.51 147.601H179.885V159.297ZM149.081 159.005C149.08 159.097 149.078 159.19 149.076 159.282H153.515V147.586H149.269C149.202 151.343 149.14 155.15 149.081 159.005ZM163.903 64.5244C162.788 64.7145 161.532 65.5213 160.219 66.873C158.724 68.4126 157.236 70.5765 155.904 73.041C153.235 77.978 151.247 84.0149 151.051 88.4492V88.4512C150.791 93.7437 150.564 99.1975 150.361 104.806C152.257 98.7381 154.392 95.3474 156.616 93.4648C159.132 91.3359 161.699 91.1942 163.903 91.1846L163.903 64.5244ZM169.497 91.1914C171.662 91.1625 174.316 91.0331 176.907 92.877C179.209 94.5142 181.406 97.6561 183.318 103.597C183.034 97.9589 182.609 92.4087 182.348 87.1045V87.1025C182.152 82.673 180.168 76.9799 177.503 72.3877C176.173 70.0956 174.688 68.1031 173.196 66.6904C171.886 65.4509 170.625 64.7084 169.497 64.5352L169.497 91.1914ZM166.683 1.00684C166.624 1.02523 166.5 1.09678 166.323 1.36133C166.117 1.66834 165.916 2.12449 165.729 2.68555C165.356 3.80142 165.073 5.21129 164.882 6.3584C164.408 9.20883 161.987 20.8275 159.306 34.626H174.181C171.459 20.8833 168.983 9.25112 168.503 6.36523C168.312 5.21752 168.033 3.80895 167.662 2.69434C167.476 2.13367 167.276 1.67743 167.072 1.37109C166.852 1.04254 166.714 1.01202 166.683 1.01172V1.00684Z" fill="white"/>
</svg>
