<svg width="224" height="42" viewBox="0 0 224 42" fill="none" xmlns="http://www.w3.org/2000/svg">
<path d="M188.138 1.97558C178.512 2.29086 169.06 2.64142 159.809 3.03418C127.501 4.40576 107.89 5.30722 51.3613 12.2646C43.2916 13.2579 30.5991 15.1757 19.9238 16.9863C14.5863 17.8916 9.75792 18.7699 6.2666 19.4912C4.51958 19.8522 3.11546 20.1723 2.15234 20.4355C1.96142 20.4877 1.79008 20.5387 1.63867 20.585L1.67395 20.5962C1.80414 20.6378 1.94836 20.6839 2.10742 20.7295C3.03752 20.9961 4.39574 21.3195 6.08789 21.6826C9.46908 22.4082 14.1514 23.2871 19.3428 24.1924C29.7255 26.0029 42.1247 27.9141 50.1934 28.9072C107.893 36.0087 127.489 37.1715 159.794 38.543L162.863 38.6733C162.868 38.6735 162.873 38.6737 162.879 38.674C171.148 39.0253 179.574 39.3832 188.136 39.7314L188.137 22.8232C126.946 25.6548 109.309 25.2187 51.2686 21.5127L51.2627 20.5156C109.306 16.0735 126.947 15.5507 188.137 18.9443L188.138 1.97558Z" fill="#A6A6A6"/>
<path d="M222.769 1.0127C211.359 1.27675 200.136 1.58555 189.138 1.94238L189.137 19C197.047 19.4408 205.682 19.9449 215.218 20.5146L215.213 21.5137C205.679 21.9889 197.046 22.4087 189.137 22.7764L189.136 39.7725C200.135 40.2181 211.359 40.6446 222.769 41.0107L222.769 1.0127Z" fill="#A6A6A6"/>
<path fill-rule="evenodd" clip-rule="evenodd" d="M159.277 39.5205C127.226 38.1565 107.513 36.9702 50.0713 29.9004C41.9806 28.9046 29.5638 26.99 19.1709 25.1777C13.9745 24.2716 9.27769 23.3897 5.87793 22.6601C4.17988 22.2958 2.79545 21.9676 1.83203 21.6914C1.35345 21.5542 0.961928 21.4248 0.683593 21.3057C0.547515 21.2474 0.41426 21.1811 0.307616 21.1055C0.254531 21.0677 0.187636 21.0137 0.130858 20.9414C0.074996 20.8701 -9.06744e-07 20.7439 -8.99328e-07 20.5742C7.54025e-05 20.3936 0.085784 20.2639 0.142577 20.1963C0.201552 20.1262 0.269866 20.0746 0.323241 20.0391C0.431182 19.9672 0.566619 19.9041 0.706054 19.8476C0.991424 19.7322 1.39452 19.6058 1.88867 19.4707C2.88293 19.1989 4.31206 18.8738 6.06445 18.5117C9.57298 17.7868 14.4149 16.907 19.7568 16.001C30.4413 14.1888 43.1495 12.2681 51.2393 11.2725C107.523 4.34518 128.244 3.37411 160.294 2.01269C169.391 1.62831 179.681 1.25106 189.138 0.941405C200.293 0.579569 212.192 0.26647 223.769 0L223.769 42C212.192 41.6305 200.29 41.2253 189.136 40.7734C180.854 40.4366 171.701 40.049 163.694 39.7087L161.633 39.6208L159.277 39.5205ZM159.809 3.03418C169.06 2.64142 178.512 2.29086 188.138 1.97558L188.137 18.9443C126.947 15.5507 109.306 16.0735 51.2627 20.5156L51.2686 21.5127C109.309 25.2187 126.946 25.6548 188.137 22.8232L188.136 39.7314C179.574 39.3832 171.148 39.0253 162.879 38.674L162.863 38.6733L159.794 38.543C127.489 37.1715 107.893 36.0087 50.1934 28.9072C42.1247 27.9141 29.7255 26.0029 19.3428 24.1924C14.1514 23.2871 9.46908 22.4082 6.08789 21.6826C4.39574 21.3195 3.03752 20.9961 2.10742 20.7295C1.94836 20.6839 1.80414 20.6378 1.67395 20.5962L1.63867 20.585C1.79008 20.5387 1.96142 20.4877 2.15234 20.4355C3.11546 20.1723 4.51958 19.8522 6.2666 19.4912C9.75792 18.7699 14.5863 17.8916 19.9238 16.9863C30.5991 15.1757 43.2916 13.2579 51.3613 12.2646C107.89 5.30722 127.501 4.40576 159.809 3.03418ZM58.5381 20.9668C110.926 17.0358 129.548 16.6949 188.137 19.9453L188.137 21.8223C129.55 24.534 110.925 24.2463 58.5381 20.9668ZM189.138 1.94238C200.136 1.58555 211.359 1.27675 222.769 1.0127L222.769 41.0107C211.359 40.6446 200.135 40.2181 189.136 39.7725L189.137 22.7764C197.046 22.4087 205.679 21.9889 215.213 21.5137L215.218 20.5146C205.682 19.9449 197.047 19.4408 189.137 19L189.138 1.94238ZM188.137 19.9453C193.397 20.2385 199.978 20.6185 205.932 20.9687C199.978 21.2609 193.397 21.5776 188.137 21.8223L188.137 19.9453Z" fill="#535353"/>
</svg>
